<svg xmlns="http://www.w3.org/2000/svg" aria-roledescription="er" role="graphics-document document" viewBox="0 0 655.5177001953125 502.8055725097656" style="max-width: 655.5177001953125px;" width="655.509765625" id="mermaid-to-excalidraw" height="502.7978820800781"><style>#mermaid-to-excalidraw{font-family:"trebuchet ms",verdana,arial,sans-serif;font-size:25px;fill:#333;}#mermaid-to-excalidraw .error-icon{fill:#552222;}#mermaid-to-excalidraw .error-text{fill:#552222;stroke:#552222;}#mermaid-to-excalidraw .edge-thickness-normal{stroke-width:2px;}#mermaid-to-excalidraw .edge-thickness-thick{stroke-width:3.5px;}#mermaid-to-excalidraw .edge-pattern-solid{stroke-dasharray:0;}#mermaid-to-excalidraw .edge-pattern-dashed{stroke-dasharray:3;}#mermaid-to-excalidraw .edge-pattern-dotted{stroke-dasharray:2;}#mermaid-to-excalidraw .marker{fill:#333333;stroke:#333333;}#mermaid-to-excalidraw .marker.cross{stroke:#333333;}#mermaid-to-excalidraw svg{font-family:"trebuchet ms",verdana,arial,sans-serif;font-size:25px;}#mermaid-to-excalidraw .entityBox{fill:#ECECFF;stroke:#9370DB;}#mermaid-to-excalidraw .attributeBoxOdd{fill:#ffffff;stroke:#9370DB;}#mermaid-to-excalidraw .attributeBoxEven{fill:#f2f2f2;stroke:#9370DB;}#mermaid-to-excalidraw .relationshipLabelBox{fill:hsl(80, 100%, 96.2745098039%);opacity:0.7;background-color:hsl(80, 100%, 96.2745098039%);}#mermaid-to-excalidraw .relationshipLabelBox rect{opacity:0.5;}#mermaid-to-excalidraw .relationshipLine{stroke:#333333;}#mermaid-to-excalidraw .entityTitleText{text-anchor:middle;font-size:18px;fill:#333;}#mermaid-to-excalidraw #MD_PARENT_START{fill:#f5f5f5!important;stroke:#333333!important;stroke-width:1;}#mermaid-to-excalidraw #MD_PARENT_END{fill:#f5f5f5!important;stroke:#333333!important;stroke-width:1;}#mermaid-to-excalidraw :root{--mermaid-font-family:"trebuchet ms",verdana,arial,sans-serif;}</style><g/><defs><marker orient="auto" markerHeight="240" markerWidth="190" refY="7" refX="0" id="MD_PARENT_START"><path d="M 18,7 L9,13 L1,7 L9,1 Z"/></marker></defs><defs><marker orient="auto" markerHeight="28" markerWidth="20" refY="7" refX="19" id="MD_PARENT_END"><path d="M 18,7 L9,13 L1,7 L9,1 Z"/></marker></defs><defs><marker orient="auto" markerHeight="18" markerWidth="18" refY="9" refX="0" id="ONLY_ONE_START"><path d="M9,0 L9,18 M15,0 L15,18" fill="none" stroke="gray"/></marker></defs><defs><marker orient="auto" markerHeight="18" markerWidth="18" refY="9" refX="18" id="ONLY_ONE_END"><path d="M3,0 L3,18 M9,0 L9,18" fill="none" stroke="gray"/></marker></defs><defs><marker orient="auto" markerHeight="18" markerWidth="30" refY="9" refX="0" id="ZERO_OR_ONE_START"><circle r="6" cy="9" cx="21" fill="white" stroke="gray"/><path d="M9,0 L9,18" fill="none" stroke="gray"/></marker></defs><defs><marker orient="auto" markerHeight="18" markerWidth="30" refY="9" refX="30" id="ZERO_OR_ONE_END"><circle r="6" cy="9" cx="9" fill="white" stroke="gray"/><path d="M21,0 L21,18" fill="none" stroke="gray"/></marker></defs><defs><marker orient="auto" markerHeight="36" markerWidth="45" refY="18" refX="18" id="ONE_OR_MORE_START"><path d="M0,18 Q 18,0 36,18 Q 18,36 0,18 M42,9 L42,27" fill="none" stroke="gray"/></marker></defs><defs><marker orient="auto" markerHeight="36" markerWidth="45" refY="18" refX="27" id="ONE_OR_MORE_END"><path d="M3,9 L3,27 M9,18 Q27,0 45,18 Q27,36 9,18" fill="none" stroke="gray"/></marker></defs><defs><marker orient="auto" markerHeight="36" markerWidth="57" refY="18" refX="18" id="ZERO_OR_MORE_START"><circle r="6" cy="18" cx="48" fill="white" stroke="gray"/><path d="M0,18 Q18,0 36,18 Q18,36 0,18" fill="none" stroke="gray"/></marker></defs><defs><marker orient="auto" markerHeight="36" markerWidth="57" refY="18" refX="39" id="ZERO_OR_MORE_END"><circle r="6" cy="18" cx="9" fill="white" stroke="gray"/><path d="M21,18 Q39,0 57,18 Q39,36 21,18" fill="none" stroke="gray"/></marker></defs><path style="stroke: gray; fill: none;" marker-start="url(#ONLY_ONE_START)" marker-end="url(#ZERO_OR_MORE_END)" d="M95.542,132.806L95.542,141.139C95.542,149.472,95.542,166.139,129.115,185.869C162.687,205.599,229.833,228.393,263.406,239.79L296.979,251.186" class="er relationshipLine"/><path style="stroke: gray; fill: none;" marker-start="url(#ONLY_ONE_START)" marker-end="url(#ZERO_OR_MORE_END)" d="M353.301,110.39L353.301,122.46C353.301,134.529,353.301,158.667,353.301,179.07C353.301,199.472,353.301,216.139,353.301,224.472L353.301,232.806" class="er relationshipLine"/><path style="stroke: gray; fill: none;" marker-start="url(#ONLY_ONE_START)" marker-end="url(#ZERO_OR_MORE_END)" d="M585.518,113.903L585.518,125.387C585.518,136.87,585.518,159.838,556.202,182.368C526.886,204.898,468.254,226.991,438.938,238.037L409.622,249.083" class="er relationshipLine"/><path style="stroke: gray; fill: none;" marker-start="url(#ONLY_ONE_START)" marker-end="url(#ONLY_ONE_END)" d="M353.301,307.806L353.301,316.139C353.301,324.472,353.301,341.139,353.301,357.806C353.301,374.472,353.301,391.139,353.301,399.472L353.301,407.806" class="er relationshipLine"/><g transform="translate(20,20 )" id="entity-CLIENTS-b429b292-d563-5438-a248-cb3478209437"><rect height="112.80552005767822" width="151.08336925506592" y="0" x="0" class="er entityBox"/><text style="dominant-baseline: middle; text-anchor: middle; font-size: 12px;" transform="translate(75.54168462753296,11.937819004058838)" y="0" x="0" id="text-entity-CLIENTS-b429b292-d563-5438-a248-cb3478209437" class="er entityLabel">CLIENTS</text><rect height="21.68474769592285" width="68.5150260925293" y="23.875638008117676" x="0" class="er attributeBoxOdd"/><text style="dominant-baseline: middle; font-size: 10.2px;" transform="translate(5,34.7180118560791)" y="0" x="0" id="text-entity-CLIENTS-b429b292-d563-5438-a248-cb3478209437-attr-1-type" class="er entityLabel">int</text><rect height="21.68474769592285" width="59.384891510009766" y="23.875638008117676" x="68.5150260925293" class="er attributeBoxOdd"/><text style="dominant-baseline: middle; font-size: 10.2px;" transform="translate(73.5150260925293,34.7180118560791)" y="0" x="0" id="text-entity-CLIENTS-b429b292-d563-5438-a248-cb3478209437-attr-1-name" class="er entityLabel">client_id</text><rect height="21.68474769592285" width="23.183451652526855" y="23.875638008117676" x="127.89991760253906" class="er attributeBoxOdd"/><text style="dominant-baseline: middle; font-size: 10.2px;" transform="translate(132.89991760253906,34.7180118560791)" y="0" x="0" id="text-entity-CLIENTS-b429b292-d563-5438-a248-cb3478209437-attr-1-key" class="er entityLabel">PK</text><rect height="22.4150447845459" width="68.5150260925293" y="45.56038570404053" x="0" class="er attributeBoxEven"/><text style="dominant-baseline: middle; font-size: 10.2px;" transform="translate(5,56.76790809631348)" y="0" x="0" id="text-entity-CLIENTS-b429b292-d563-5438-a248-cb3478209437-attr-2-type" class="er entityLabel">varchar(50)</text><rect height="22.4150447845459" width="59.384891510009766" y="45.56038570404053" x="68.5150260925293" class="er attributeBoxEven"/><text style="dominant-baseline: middle; font-size: 10.2px;" transform="translate(73.5150260925293,56.76790809631348)" y="0" x="0" id="text-entity-CLIENTS-b429b292-d563-5438-a248-cb3478209437-attr-2-name" class="er entityLabel">first_name</text><rect height="22.4150447845459" width="23.183451652526855" y="45.56038570404053" x="127.89991760253906" class="er attributeBoxEven"/><text style="dominant-baseline: middle; font-size: 10.2px;" transform="translate(132.89991760253906,56.76790809631348)" y="0" x="0" id="text-entity-CLIENTS-b429b292-d563-5438-a248-cb3478209437-attr-2-key" class="er entityLabel"/><rect height="22.4150447845459" width="68.5150260925293" y="67.97543048858643" x="0" class="er attributeBoxOdd"/><text style="dominant-baseline: middle; font-size: 10.2px;" transform="translate(5,79.18295288085938)" y="0" x="0" id="text-entity-CLIENTS-b429b292-d563-5438-a248-cb3478209437-attr-3-type" class="er entityLabel">varchar(50)</text><rect height="22.4150447845459" width="59.384891510009766" y="67.97543048858643" x="68.5150260925293" class="er attributeBoxOdd"/><text style="dominant-baseline: middle; font-size: 10.2px;" transform="translate(73.5150260925293,79.18295288085938)" y="0" x="0" id="text-entity-CLIENTS-b429b292-d563-5438-a248-cb3478209437-attr-3-name" class="er entityLabel">last_name</text><rect height="22.4150447845459" width="23.183451652526855" y="67.97543048858643" x="127.89991760253906" class="er attributeBoxOdd"/><text style="dominant-baseline: middle; font-size: 10.2px;" transform="translate(132.89991760253906,79.18295288085938)" y="0" x="0" id="text-entity-CLIENTS-b429b292-d563-5438-a248-cb3478209437-attr-3-key" class="er entityLabel"/><rect height="22.4150447845459" width="68.5150260925293" y="90.39047527313232" x="0" class="er attributeBoxEven"/><text style="dominant-baseline: middle; font-size: 10.2px;" transform="translate(5,101.59799766540527)" y="0" x="0" id="text-entity-CLIENTS-b429b292-d563-5438-a248-cb3478209437-attr-4-type" class="er entityLabel">varchar(100)</text><rect height="22.4150447845459" width="59.384891510009766" y="90.39047527313232" x="68.5150260925293" class="er attributeBoxEven"/><text style="dominant-baseline: middle; font-size: 10.2px;" transform="translate(73.5150260925293,101.59799766540527)" y="0" x="0" id="text-entity-CLIENTS-b429b292-d563-5438-a248-cb3478209437-attr-4-name" class="er entityLabel">email</text><rect height="22.4150447845459" width="23.183451652526855" y="90.39047527313232" x="127.89991760253906" class="er attributeBoxEven"/><text style="dominant-baseline: middle; font-size: 10.2px;" transform="translate(132.89991760253906,101.59799766540527)" y="0" x="0" id="text-entity-CLIENTS-b429b292-d563-5438-a248-cb3478209437-attr-4-key" class="er entityLabel">UK</text></g><g transform="translate(296.97905349731445,232.80552673339844 )" id="entity-APPOINTMENTS-bfb248a4-37f0-5897-89c9-b7a6f4ef5692"><rect height="75" width="112.6429672241211" y="0" x="0" class="er entityBox"/><text style="dominant-baseline: middle; text-anchor: middle; font-size: 12px;" transform="translate(56.32148361206055,37.5)" y="0" x="0" id="text-entity-APPOINTMENTS-bfb248a4-37f0-5897-89c9-b7a6f4ef5692" class="er entityLabel">APPOINTMENTS</text></g><g transform="translate(271.08335876464844,42.4150505065918 )" id="entity-SERVICES-8c0d04e0-c316-5482-86d1-7df1c8c3b5d2"><rect height="67.97543048858643" width="164.43435955047607" y="0" x="0" class="er entityBox"/><text style="dominant-baseline: middle; text-anchor: middle; font-size: 12px;" transform="translate(82.21717977523804,11.937819004058838)" y="0" x="0" id="text-entity-SERVICES-8c0d04e0-c316-5482-86d1-7df1c8c3b5d2" class="er entityLabel">SERVICES</text><rect height="21.68474769592285" width="68.5150260925293" y="23.875638008117676" x="0" class="er attributeBoxOdd"/><text style="dominant-baseline: middle; font-size: 10.2px;" transform="translate(5,34.7180118560791)" y="0" x="0" id="text-entity-SERVICES-8c0d04e0-c316-5482-86d1-7df1c8c3b5d2-attr-1-type" class="er entityLabel">int</text><rect height="21.68474769592285" width="72.73588180541992" y="23.875638008117676" x="68.5150260925293" class="er attributeBoxOdd"/><text style="dominant-baseline: middle; font-size: 10.2px;" transform="translate(73.5150260925293,34.7180118560791)" y="0" x="0" id="text-entity-SERVICES-8c0d04e0-c316-5482-86d1-7df1c8c3b5d2-attr-1-name" class="er entityLabel">service_id</text><rect height="21.68474769592285" width="23.183451652526855" y="23.875638008117676" x="141.25090789794922" class="er attributeBoxOdd"/><text style="dominant-baseline: middle; font-size: 10.2px;" transform="translate(146.25090789794922,34.7180118560791)" y="0" x="0" id="text-entity-SERVICES-8c0d04e0-c316-5482-86d1-7df1c8c3b5d2-attr-1-key" class="er entityLabel">PK</text><rect height="22.4150447845459" width="68.5150260925293" y="45.56038570404053" x="0" class="er attributeBoxEven"/><text style="dominant-baseline: middle; font-size: 10.2px;" transform="translate(5,56.76790809631348)" y="0" x="0" id="text-entity-SERVICES-8c0d04e0-c316-5482-86d1-7df1c8c3b5d2-attr-2-type" class="er entityLabel">varchar(100)</text><rect height="22.4150447845459" width="72.73588180541992" y="45.56038570404053" x="68.5150260925293" class="er attributeBoxEven"/><text style="dominant-baseline: middle; font-size: 10.2px;" transform="translate(73.5150260925293,56.76790809631348)" y="0" x="0" id="text-entity-SERVICES-8c0d04e0-c316-5482-86d1-7df1c8c3b5d2-attr-2-name" class="er entityLabel">service_name</text><rect height="22.4150447845459" width="23.183451652526855" y="45.56038570404053" x="141.25090789794922" class="er attributeBoxEven"/><text style="dominant-baseline: middle; font-size: 10.2px;" transform="translate(146.25090789794922,56.76790809631348)" y="0" x="0" id="text-entity-SERVICES-8c0d04e0-c316-5482-86d1-7df1c8c3b5d2-attr-2-key" class="er entityLabel">UK</text></g><g transform="translate(535.5177154541016,38.90276336669922 )" id="entity-EMPLOYEES-8b5a9d6c-39cc-5949-a4b6-f3775b3ddf63"><rect height="75" width="100" y="0" x="0" class="er entityBox"/><text style="dominant-baseline: middle; text-anchor: middle; font-size: 12px;" transform="translate(50,37.5)" y="0" x="0" id="text-entity-EMPLOYEES-8b5a9d6c-39cc-5949-a4b6-f3775b3ddf63" class="er entityLabel">EMPLOYEES</text></g><g transform="translate(297.6352310180664,407.80552673339844 )" id="entity-TRANSACTIONS-32d51909-7031-5e05-aa71-98dfe8f7803c"><rect height="75" width="111.33061218261719" y="0" x="0" class="er entityBox"/><text style="dominant-baseline: middle; text-anchor: middle; font-size: 12px;" transform="translate(55.665306091308594,37.5)" y="0" x="0" id="text-entity-TRANSACTIONS-32d51909-7031-5e05-aa71-98dfe8f7803c" class="er entityLabel">TRANSACTIONS</text></g><rect height="13.875638008117676" width="18.360116958618164" y="202.79802083969116" x="171.1552381515503" class="er relationshipLabelBox"/><text style="text-anchor: middle; dominant-baseline: middle; font-size: 12px;" y="209.73583984375" x="180.33529663085938" id="rel1" class="er relationshipLabel">1:N</text><rect height="13.875638008117676" width="18.360116958618164" y="164.66017293930054" x="344.1209363937378" class="er relationshipLabelBox"/><text style="text-anchor: middle; dominant-baseline: middle; font-size: 12px;" y="171.59799194335938" x="353.3009948730469" id="rel2" class="er relationshipLabel">1:N</text><rect height="13.875638008117676" width="18.360116958618164" y="196.78012228012085" x="511.38897228240967" class="er relationshipLabelBox"/><text style="text-anchor: middle; dominant-baseline: middle; font-size: 12px;" y="203.7179412841797" x="520.5690307617188" id="rel3" class="er relationshipLabel">1:N</text><rect height="13.875638008117676" width="16.99081039428711" y="350.86818075180054" x="344.8055896759033" class="er relationshipLabelBox"/><text style="text-anchor: middle; dominant-baseline: middle; font-size: 12px;" y="357.8059997558594" x="353.3009948730469" id="rel4" class="er relationshipLabel">1:1</text></svg>